<?xml version="1.0" standalone="no"?>
<!DOCTYPE svg PUBLIC "-//W3C//DTD SVG 20010904//EN"
 "http://www.w3.org/TR/2001/REC-SVG-20010904/DTD/svg10.dtd">
<svg version="1.0" xmlns="http://www.w3.org/2000/svg"
 width="2048.000000pt" height="2048.000000pt" viewBox="0 0 2048.000000 2048.000000"
 preserveAspectRatio="xMidYMid meet">

<g transform="translate(0.000000,2048.000000) scale(0.100000,-0.100000)"
fill="#000000" stroke="none">
<path d="M17770 19390 c-72 -13 -139 -67 -179 -147 -75 -150 -275 -872 -416
-1502 -73 -325 -112 -600 -100 -711 14 -127 67 -220 148 -259 100 -48 179 -14
239 104 20 38 203 628 303 975 137 473 240 910 281 1182 19 130 12 201 -27
264 -40 66 -157 109 -249 94z"/>
<path d="M4585 19258 c-16 -6 -45 -24 -63 -41 -81 -77 -97 -221 -82 -767 5
-206 11 -449 12 -540 l3 -164 -25 -12 c-22 -11 -182 -27 -734 -75 -65 -6 -120
-8 -122 -6 -3 3 -9 98 -15 213 -24 521 -53 867 -85 1021 -35 173 -107 242
-240 231 -76 -6 -129 -44 -162 -116 -24 -52 -26 -68 -26 -187 -1 -255 25
-2141 29 -2175 3 -19 12 -105 20 -190 30 -295 75 -432 161 -489 110 -72 250
-44 306 62 l23 42 0 577 c0 317 3 579 7 583 18 19 846 81 862 65 6 -6 16 -137
23 -293 19 -438 41 -724 64 -817 25 -106 80 -210 136 -260 118 -103 293 -87
355 33 30 58 34 160 14 397 -9 107 -23 371 -31 585 -39 1019 -46 1180 -60
1455 -19 359 -40 588 -59 655 -32 106 -102 184 -192 211 -54 16 -77 17 -119 2z"/>
<path d="M11660 19224 c-130 -20 -368 -79 -665 -168 -138 -41 -285 -81 -328
-89 -110 -22 -162 -50 -192 -102 -22 -37 -26 -57 -30 -156 -2 -63 -8 -170 -14
-239 -17 -195 -41 -864 -48 -1300 -7 -511 7 -660 78 -801 78 -157 267 -230
475 -184 170 37 875 288 973 347 147 87 173 203 67 296 -97 85 -227 69 -832
-103 -106 -30 -201 -55 -212 -55 -12 0 -26 9 -32 19 -10 21 -15 678 -4 717 6
22 90 45 414 114 198 42 337 78 374 97 104 52 143 151 96 243 -37 72 -101 100
-229 100 -99 0 -181 -13 -444 -71 -103 -23 -189 -40 -192 -37 -4 4 26 720 31
726 4 6 225 64 627 166 208 53 395 105 415 115 135 70 163 220 61 318 -19 18
-54 39 -78 48 -54 19 -180 18 -311 -1z"/>
<path d="M8835 18991 c-103 -48 -245 -247 -590 -831 -92 -157 -174 -292 -182
-300 -12 -13 -19 -9 -53 30 -47 53 -194 252 -270 365 -79 118 -182 246 -251
309 -136 127 -267 149 -337 58 -24 -31 -27 -44 -27 -107 0 -67 3 -76 49 -156
72 -123 299 -471 479 -733 221 -320 212 -300 192 -465 -54 -439 -88 -825 -89
-1031 l-1 -215 27 -46 c86 -146 340 -176 426 -49 41 61 43 76 107 800 38 440
61 658 72 687 3 10 24 43 44 75 148 220 499 842 657 1165 74 152 77 161 77
228 -1 80 -15 115 -71 169 -65 63 -179 84 -259 47z"/>
<path d="M16351 18938 c-54 -26 -105 -95 -125 -168 -46 -170 -132 -1147 -152
-1737 -7 -197 7 -408 31 -491 32 -106 114 -165 231 -166 96 -1 155 34 198 117
l29 57 8 308 c10 389 36 869 85 1542 19 268 16 378 -14 436 -56 109 -185 155
-291 102z"/>
<path d="M6425 18904 c-95 -17 -349 -89 -493 -139 -57 -19 -166 -51 -244 -70
-86 -21 -156 -44 -179 -59 -58 -39 -67 -77 -73 -316 -3 -113 -12 -308 -20
-435 -47 -733 -57 -1397 -23 -1512 36 -124 92 -193 196 -242 50 -23 68 -26
161 -26 120 1 92 -9 500 170 129 56 294 124 365 151 157 58 205 96 205 162 0
53 -12 82 -52 127 -97 111 -211 102 -649 -53 -123 -44 -235 -82 -249 -83 l-25
-4 2 263 c1 145 3 266 5 268 6 5 243 67 418 109 204 49 286 78 323 112 132
124 53 332 -128 333 -16 0 -157 -32 -313 -71 -155 -40 -284 -70 -285 -68 -5 6
10 241 33 539 15 206 22 257 35 266 19 14 231 74 565 159 135 34 261 69 280
77 44 19 96 77 105 116 17 80 -54 182 -151 217 -67 23 -210 28 -309 9z"/>
<path d="M14730 18839 c-174 -16 -338 -68 -424 -134 -18 -14 -45 -48 -61 -77
-27 -49 -28 -59 -36 -247 -32 -794 -31 -1168 7 -1586 24 -275 47 -340 144
-428 143 -129 360 -161 580 -88 52 18 119 46 150 63 358 201 669 639 745 1050
77 421 0 800 -220 1075 -147 184 -314 296 -517 347 -56 14 -243 38 -273 34 -5
0 -48 -4 -95 -9z m188 -383 c326 -87 516 -424 473 -838 -26 -246 -136 -463
-332 -658 -151 -149 -293 -217 -342 -162 -35 39 -56 428 -59 1124 -2 374 0
510 9 519 29 29 166 37 251 15z"/>
<path d="M12942 18829 c-183 -24 -424 -128 -502 -217 -42 -47 -91 -162 -117
-272 -21 -88 -29 -664 -14 -925 19 -304 61 -660 96 -810 30 -132 99 -218 219
-274 172 -81 352 -66 590 49 257 123 480 352 621 635 93 188 137 347 157 577
35 399 -76 755 -306 983 -203 201 -465 291 -744 254z m160 -379 c140 -43 257
-150 338 -309 36 -72 70 -226 76 -346 14 -276 -71 -513 -268 -745 -73 -86
-178 -175 -246 -209 -30 -16 -57 -21 -90 -19 -54 4 -51 -4 -76 199 -42 343
-86 1311 -63 1391 6 22 17 31 55 42 70 22 197 20 274 -4z"/>
<path d="M17075 16361 c-98 -25 -184 -106 -211 -199 -21 -72 -15 -182 14 -237
48 -94 143 -149 257 -149 82 1 126 17 183 68 61 55 86 122 87 231 0 81 -3 95
-29 143 -32 57 -82 103 -138 127 -44 18 -125 26 -163 16z"/>
<path d="M12990 14724 c-878 -78 -1631 -382 -2253 -909 -322 -273 -603 -601
-816 -953 -400 -662 -609 -1400 -628 -2224 -8 -331 18 -622 83 -942 87 -433
289 -929 519 -1277 451 -682 1091 -1126 1917 -1329 89 -22 170 -40 180 -40 26
0 23 -9 -16 -50 -53 -55 -145 -188 -186 -271 -51 -101 -101 -247 -135 -394
l-28 -120 -56 -53 c-299 -284 -779 -563 -1219 -706 -339 -111 -565 -123 -791
-44 -111 39 -187 81 -297 166 -176 136 -335 343 -470 613 -169 337 -294 794
-348 1269 l-14 125 35 40 c131 154 186 330 154 500 -31 165 -158 316 -311 370
-225 80 -460 1 -588 -197 -62 -95 -85 -174 -85 -288 0 -118 29 -208 97 -304
42 -59 46 -69 46 -124 0 -192 74 -653 151 -942 173 -646 427 -1117 790 -1465
136 -130 262 -219 429 -303 211 -106 360 -147 589 -161 313 -19 613 31 966
164 222 83 474 205 676 329 41 24 74 44 75 43 1 -1 -7 -67 -17 -147 -58 -465
-80 -732 -119 -1480 -17 -316 -57 -1032 -90 -1590 -33 -558 -71 -1217 -85
-1465 -13 -247 -27 -476 -30 -507 l-5 -58 324 0 325 0 5 53 c3 28 24 369 46
757 40 692 71 1214 110 1860 11 179 31 541 45 805 38 733 62 1024 126 1570 54
463 113 816 182 1095 75 300 151 423 338 551 158 108 238 221 258 361 34 242
-107 479 -333 558 -30 11 -118 31 -193 44 -594 105 -998 264 -1353 532 -105
80 -218 190 -185 180 64 -17 213 -28 325 -22 320 15 662 135 900 315 704 530
721 1421 35 1867 -158 102 -303 161 -568 229 -478 122 -947 183 -1347 173
l-188 -4 5 40 c38 328 135 727 245 1006 235 593 588 1069 1063 1433 894 684
2129 865 3169 462 499 -192 944 -512 1259 -905 292 -364 511 -846 612 -1345
110 -547 97 -1173 -35 -1695 -171 -677 -572 -1277 -1147 -1718 -213 -163 -497
-335 -703 -427 -162 -72 -261 -161 -321 -290 -107 -227 -10 -518 215 -650 53
-31 156 -71 666 -262 388 -144 580 -222 580 -234 0 -4 13 -106 30 -226 63
-464 121 -904 170 -1278 28 -214 100 -763 161 -1220 60 -456 161 -1221 225
-1700 130 -990 241 -1822 250 -1877 l6 -38 330 0 330 0 -6 33 c-5 30 -166
1228 -222 1652 -34 265 -152 1151 -224 1695 -34 250 -94 707 -135 1015 -41
308 -109 820 -151 1138 -42 318 -74 580 -71 583 16 16 554 -195 792 -310 490
-237 814 -450 1083 -711 74 -71 161 -163 195 -205 197 -244 328 -520 393 -827
32 -153 44 -428 25 -590 -46 -392 -187 -735 -456 -1111 -51 -72 -68 -123 -67
-207 0 -73 21 -132 67 -195 108 -147 314 -177 466 -70 90 64 286 385 414 675
224 508 295 1036 209 1555 -66 400 -234 787 -487 1127 -105 140 -406 442 -562
563 -528 408 -1310 783 -2165 1036 -208 62 -318 100 -535 186 -82 33 -262 102
-398 154 -137 51 -255 98 -264 103 -14 7 -11 12 18 26 77 40 362 223 469 303
338 250 654 570 883 895 171 241 350 578 447 840 185 502 271 1032 257 1597
-12 458 -80 873 -212 1280 -132 405 -360 829 -621 1155 -112 139 -357 385
-495 498 -427 348 -908 588 -1454 725 -349 89 -541 113 -930 117 -165 1 -320
1 -345 -1z"/>
<path d="M5591 12862 c-111 -56 -136 -215 -48 -299 25 -24 2053 -1190 2272
-1306 65 -35 102 -41 156 -27 137 37 182 220 77 317 -12 11 -288 172 -613 356
-324 184 -842 480 -1150 656 -531 304 -562 321 -610 321 -28 0 -65 -8 -84 -18z"/>
<path d="M11235 12541 c-152 -69 -250 -335 -204 -553 38 -176 167 -267 296
-209 125 57 213 239 213 441 0 247 -141 396 -305 321z"/>
<path d="M12572 12194 c-155 -77 -261 -318 -231 -527 30 -220 205 -336 364
-243 185 109 277 426 185 640 -59 139 -192 193 -318 130z"/>
<path d="M278 11150 c-48 -26 -78 -77 -85 -144 -7 -70 22 -136 77 -172 43 -29
-21 -22 2420 -249 388 -36 1520 -142 2515 -235 996 -93 1909 -179 2029 -190
234 -22 258 -20 319 22 89 63 88 233 -2 297 -16 12 -51 26 -77 31 -27 6 -411
44 -854 85 -443 41 -1239 115 -1770 165 -531 50 -1233 115 -1560 145 -327 31
-712 67 -855 80 -962 91 -2005 185 -2058 185 -41 -1 -74 -7 -99 -20z"/>
<path d="M6290 9240 c-357 -86 -1673 -399 -2785 -661 -420 -100 -449 -111
-484 -182 -61 -127 22 -268 158 -270 48 0 148 23 1631 374 2096 497 1997 473
2028 496 92 68 105 194 29 280 -38 43 -82 63 -134 62 -21 -1 -220 -45 -443
-99z"/>
</g>
</svg>
